<mxfile host="app.diagrams.net" modified="2023-04-16T05:03:49.452Z" agent="Mozilla/5.0 (Macintosh; Intel Mac OS X 10_15_7) AppleWebKit/537.36 (KHTML, like Gecko) Chrome/112.0.0.0 Safari/537.36" etag="-eR_wz_hk4zyDAkH_uxd" version="21.1.8" type="device">
  <diagram name="PÃ¡gina-1" id="0CDT9biy-fgqLzYx1Eov">
    <mxGraphModel dx="1266" dy="692" grid="1" gridSize="10" guides="1" tooltips="1" connect="1" arrows="1" fold="1" page="1" pageScale="1" pageWidth="827" pageHeight="1169" math="0" shadow="0">
      <root>
        <mxCell id="0" />
        <mxCell id="1" parent="0" />
        <mxCell id="9Ogd60wA-Y3IipWxb8gl-2" value="" style="sketch=0;pointerEvents=1;shadow=0;dashed=0;html=1;strokeColor=none;fillColor=#505050;labelPosition=center;verticalLabelPosition=bottom;verticalAlign=top;outlineConnect=0;align=center;shape=mxgraph.office.concepts.web_page;" parent="1" vertex="1">
          <mxGeometry x="88" y="248" width="50" height="54" as="geometry" />
        </mxCell>
        <mxCell id="9Ogd60wA-Y3IipWxb8gl-3" value="" style="verticalLabelPosition=bottom;sketch=0;aspect=fixed;html=1;verticalAlign=top;strokeColor=none;align=center;outlineConnect=0;shape=mxgraph.citrix.proxy_server;" parent="1" vertex="1">
          <mxGeometry x="308" y="230" width="76.5" height="90" as="geometry" />
        </mxCell>
        <mxCell id="9Ogd60wA-Y3IipWxb8gl-4" value="&lt;b&gt;HAProxy&lt;/b&gt;&lt;br&gt;*:80 frontend&lt;br&gt;balancing RR :8000 backend" style="text;html=1;align=center;verticalAlign=middle;resizable=0;points=[];autosize=1;strokeColor=none;fillColor=none;" parent="1" vertex="1">
          <mxGeometry x="248" y="320" width="180" height="60" as="geometry" />
        </mxCell>
        <mxCell id="9Ogd60wA-Y3IipWxb8gl-5" value="" style="rounded=1;whiteSpace=wrap;html=1;" parent="1" vertex="1">
          <mxGeometry x="538" y="110" width="170" height="330" as="geometry" />
        </mxCell>
        <mxCell id="9Ogd60wA-Y3IipWxb8gl-6" value="" style="image;aspect=fixed;perimeter=ellipsePerimeter;html=1;align=center;shadow=0;dashed=0;spacingTop=3;image=img/lib/active_directory/web_server.svg;" parent="1" vertex="1">
          <mxGeometry x="608" y="140" width="40" height="50" as="geometry" />
        </mxCell>
        <mxCell id="9Ogd60wA-Y3IipWxb8gl-18" value="" style="image;aspect=fixed;perimeter=ellipsePerimeter;html=1;align=center;shadow=0;dashed=0;spacingTop=3;image=img/lib/active_directory/web_server.svg;" parent="1" vertex="1">
          <mxGeometry x="608" y="210" width="40" height="50" as="geometry" />
        </mxCell>
        <mxCell id="9Ogd60wA-Y3IipWxb8gl-19" value="" style="image;aspect=fixed;perimeter=ellipsePerimeter;html=1;align=center;shadow=0;dashed=0;spacingTop=3;image=img/lib/active_directory/web_server.svg;" parent="1" vertex="1">
          <mxGeometry x="608" y="280" width="40" height="50" as="geometry" />
        </mxCell>
        <mxCell id="9Ogd60wA-Y3IipWxb8gl-20" value="" style="image;aspect=fixed;perimeter=ellipsePerimeter;html=1;align=center;shadow=0;dashed=0;spacingTop=3;image=img/lib/active_directory/web_server.svg;" parent="1" vertex="1">
          <mxGeometry x="608" y="350" width="40" height="50" as="geometry" />
        </mxCell>
        <mxCell id="9Ogd60wA-Y3IipWxb8gl-21" value="&lt;b&gt;Gunicorn&lt;/b&gt;&lt;br&gt;port: 8000" style="text;html=1;align=center;verticalAlign=middle;resizable=0;points=[];autosize=1;strokeColor=none;fillColor=none;" parent="1" vertex="1">
          <mxGeometry x="583" y="75" width="80" height="40" as="geometry" />
        </mxCell>
        <mxCell id="9Ogd60wA-Y3IipWxb8gl-23" value="Worker 1" style="text;html=1;align=center;verticalAlign=middle;resizable=0;points=[];autosize=1;strokeColor=none;fillColor=none;" parent="1" vertex="1">
          <mxGeometry x="588" y="180" width="70" height="30" as="geometry" />
        </mxCell>
        <mxCell id="9Ogd60wA-Y3IipWxb8gl-24" value="W2" style="text;html=1;align=center;verticalAlign=middle;resizable=0;points=[];autosize=1;strokeColor=none;fillColor=none;" parent="1" vertex="1">
          <mxGeometry x="603" y="250" width="40" height="30" as="geometry" />
        </mxCell>
        <mxCell id="9Ogd60wA-Y3IipWxb8gl-25" value="W3" style="text;html=1;align=center;verticalAlign=middle;resizable=0;points=[];autosize=1;strokeColor=none;fillColor=none;" parent="1" vertex="1">
          <mxGeometry x="603" y="320" width="40" height="30" as="geometry" />
        </mxCell>
        <mxCell id="9Ogd60wA-Y3IipWxb8gl-26" value="W4" style="text;html=1;align=center;verticalAlign=middle;resizable=0;points=[];autosize=1;strokeColor=none;fillColor=none;" parent="1" vertex="1">
          <mxGeometry x="603" y="400" width="40" height="30" as="geometry" />
        </mxCell>
        <mxCell id="9Ogd60wA-Y3IipWxb8gl-28" value="Web - browser&lt;br&gt;client" style="text;html=1;align=center;verticalAlign=middle;resizable=0;points=[];autosize=1;strokeColor=none;fillColor=none;" parent="1" vertex="1">
          <mxGeometry x="58" y="302" width="100" height="40" as="geometry" />
        </mxCell>
        <mxCell id="9Ogd60wA-Y3IipWxb8gl-29" value="" style="endArrow=classic;html=1;rounded=0;" parent="1" edge="1">
          <mxGeometry width="50" height="50" relative="1" as="geometry">
            <mxPoint x="158" y="264.5" as="sourcePoint" />
            <mxPoint x="278" y="264.5" as="targetPoint" />
          </mxGeometry>
        </mxCell>
        <mxCell id="9Ogd60wA-Y3IipWxb8gl-30" value="" style="endArrow=classic;html=1;rounded=0;" parent="1" edge="1">
          <mxGeometry width="50" height="50" relative="1" as="geometry">
            <mxPoint x="278" y="280" as="sourcePoint" />
            <mxPoint x="158" y="280" as="targetPoint" />
          </mxGeometry>
        </mxCell>
        <mxCell id="9Ogd60wA-Y3IipWxb8gl-31" value="request" style="text;html=1;align=center;verticalAlign=middle;resizable=0;points=[];autosize=1;strokeColor=none;fillColor=none;" parent="1" vertex="1">
          <mxGeometry x="178" y="238" width="60" height="30" as="geometry" />
        </mxCell>
        <mxCell id="9Ogd60wA-Y3IipWxb8gl-32" value="response" style="text;html=1;align=center;verticalAlign=middle;resizable=0;points=[];autosize=1;strokeColor=none;fillColor=none;" parent="1" vertex="1">
          <mxGeometry x="173" y="278" width="70" height="30" as="geometry" />
        </mxCell>
        <mxCell id="9Ogd60wA-Y3IipWxb8gl-37" value="" style="endArrow=classic;html=1;rounded=0;" parent="1" edge="1">
          <mxGeometry width="50" height="50" relative="1" as="geometry">
            <mxPoint x="398" y="264.5" as="sourcePoint" />
            <mxPoint x="518" y="264.5" as="targetPoint" />
          </mxGeometry>
        </mxCell>
        <mxCell id="9Ogd60wA-Y3IipWxb8gl-38" value="" style="endArrow=classic;html=1;rounded=0;" parent="1" edge="1">
          <mxGeometry width="50" height="50" relative="1" as="geometry">
            <mxPoint x="518" y="280" as="sourcePoint" />
            <mxPoint x="398" y="280" as="targetPoint" />
          </mxGeometry>
        </mxCell>
        <mxCell id="9Ogd60wA-Y3IipWxb8gl-39" value="request" style="text;html=1;align=center;verticalAlign=middle;resizable=0;points=[];autosize=1;strokeColor=none;fillColor=none;" parent="1" vertex="1">
          <mxGeometry x="418" y="238" width="60" height="30" as="geometry" />
        </mxCell>
        <mxCell id="9Ogd60wA-Y3IipWxb8gl-40" value="response" style="text;html=1;align=center;verticalAlign=middle;resizable=0;points=[];autosize=1;strokeColor=none;fillColor=none;" parent="1" vertex="1">
          <mxGeometry x="413" y="278" width="70" height="30" as="geometry" />
        </mxCell>
        <mxCell id="9Ogd60wA-Y3IipWxb8gl-41" value="" style="shape=image;html=1;verticalAlign=top;verticalLabelPosition=bottom;labelBackgroundColor=#ffffff;imageAspect=0;aspect=fixed;image=https://cdn4.iconfinder.com/data/icons/scripting-and-programming-languages/512/660277-Python_logo-128.png" parent="1" vertex="1">
          <mxGeometry x="658" y="396" width="38" height="38" as="geometry" />
        </mxCell>
        <mxCell id="9Ogd60wA-Y3IipWxb8gl-42" value="" style="endArrow=none;dashed=1;html=1;dashPattern=1 3;strokeWidth=2;rounded=0;" parent="1" edge="1">
          <mxGeometry width="50" height="50" relative="1" as="geometry">
            <mxPoint x="238" y="460" as="sourcePoint" />
            <mxPoint x="238" y="60" as="targetPoint" />
          </mxGeometry>
        </mxCell>
        <mxCell id="9Ogd60wA-Y3IipWxb8gl-43" value="" style="endArrow=none;dashed=1;html=1;dashPattern=1 3;strokeWidth=2;rounded=0;" parent="1" edge="1">
          <mxGeometry width="50" height="50" relative="1" as="geometry">
            <mxPoint x="238" y="460" as="sourcePoint" />
            <mxPoint x="768" y="460" as="targetPoint" />
          </mxGeometry>
        </mxCell>
        <mxCell id="9Ogd60wA-Y3IipWxb8gl-44" value="" style="endArrow=none;dashed=1;html=1;dashPattern=1 3;strokeWidth=2;rounded=0;" parent="1" edge="1">
          <mxGeometry width="50" height="50" relative="1" as="geometry">
            <mxPoint x="768" y="460" as="sourcePoint" />
            <mxPoint x="768" y="60" as="targetPoint" />
          </mxGeometry>
        </mxCell>
        <mxCell id="9Ogd60wA-Y3IipWxb8gl-45" value="" style="endArrow=none;dashed=1;html=1;dashPattern=1 3;strokeWidth=2;rounded=0;" parent="1" edge="1">
          <mxGeometry width="50" height="50" relative="1" as="geometry">
            <mxPoint x="768" y="60" as="sourcePoint" />
            <mxPoint x="238" y="60" as="targetPoint" />
          </mxGeometry>
        </mxCell>
        <mxCell id="9Ogd60wA-Y3IipWxb8gl-46" value="" style="image;sketch=0;aspect=fixed;html=1;points=[];align=center;fontSize=12;image=img/lib/mscae/Docker.svg;" parent="1" vertex="1">
          <mxGeometry x="258" y="74" width="50" height="41" as="geometry" />
        </mxCell>
      </root>
    </mxGraphModel>
  </diagram>
</mxfile>
